<?xml version="1.0" standalone="no"?>
<svg xmlns="http://www.w3.org/2000/svg" viewBox="0 0 167.739 29" width="167.739" height="29"><g fill="#d8d3d3" color="#d8d3d3" transform="translate(0, 0) scale(0.5576924)"><svg width="44.0" height="52.0" x="0.0" y="0.0" viewBox="0 0 44 52"><path fill="currentColor" fill-rule="evenodd" d="M28.965 20.66c-.215.472-.215.343-.644.515-.43.172-.903.13-1.075-.172a.82.82 0 0 1 .258-1.031c.301-.258.817-.215 1.203-.086.387.129.258.774.258.774m-13.924-.774c.43-.129.903-.172 1.204.086.3.258.43.73.257 1.031-.171.344-.644.344-1.074.172-.43-.172-.473-.043-.688-.515.043 0-.085-.645.301-.774m21.015 5.802c-.387.258-.129.73.086 1.804.172 1.075-.387 1.462-.73 1.934-.344.473-.387-.171-.774-.171-.344-.044-.043.945-.086 1.59-.043.644-.516.258-.86.215-.343-.043-.214.214-.343.816-.13.602-.13.215-.516.558-.387.345-.129.645-.129 1.29-.043.688-.043.73-.129 1.933-.043 1.204-.558 1.505-.644 2.15-.086.644-.602 1.203-.86.859-.258-.344-.3-1.16-.387-1.805-.129-.644-.386.989-.515 1.547-.13.559-.645.172-.645-.129 0-.343-.3.258-.473.645-.172.386-.472.3-.558-.086-.043-.387-.43.129-.602.3-.172.172-.387.56-.73.56-.344 0-.173.601-.344 1.031-.13.43-.301.258-.645.129-.344-.172-.215.344-.387.86-.172.558-.687.43-.902.17-.215-.257-.258 1.075-.43 1.677-.172.559-.387-.086-.989 1.117-.558 1.204-.472 1.419-.816 2.622-.215.645-.559.86-.86.946-.3-.086-.687-.301-.86-.946-.343-1.203-.257-1.418-.816-2.622-.558-1.203-.816-.558-.988-1.117-.172-.558-.215-1.891-.43-1.676-.215.258-.73.344-.902-.172-.172-.558-.043-1.031-.387-.86-.344.172-.473.345-.645-.128-.129-.43.043-1.031-.343-1.031-.344 0-.56-.388-.731-.56-.172-.171-.559-.687-.602-.3-.043.387-.386.472-.558.086-.172-.387-.473-.988-.473-.645 0 .344-.473.688-.645.13-.129-.56-.387-2.192-.515-1.548-.13.645-.172 1.418-.387 1.805-.258.344-.774-.215-.86-.86-.086-.644-.601-.902-.644-2.149-.043-1.202-.086-1.289-.13-1.933-.042-.688.259-.988-.128-1.29-.387-.343-.387.044-.516-.558-.129-.602 0-.86-.344-.816-.344.043-.816.43-.86-.215-.042-.645.259-1.634-.085-1.59-.344.043-.387.687-.774.171-.344-.472-.902-.902-.73-1.934.172-1.074.472-1.546.086-1.804-.387-.258-.86-.559-.559-1.118.3-.558-.172-1.074.602-1.89.773-.817.773-.645.644-1.806-.129-1.16-.43-1.074-.043-1.719.387-.644.258-.386.473-1.074.172-.688.774-.902.817-.129 0 0 .171 1.375.085 2.235-.128.86-.128.644.215 1.203.344.559.301.172.516 1.29.215 1.117.688.43 1.203 1.375.516.902.172.816.903 1.203.73.387.988-.086 1.59.86.602.944.645.343.73 1.504.086.687.086 1.074.172 1.289.086-.215.215-.473.387-.73 1.16-1.72 1.762-2.193 1.633-3.009-.129-.86.043-.988-.773-1.203-.817-.258-.688-.774-1.247-.473-.558.258-.601.3-.816.258 0 0 .172-.473-.258-.516-.43-.043-.86-.344-.559-.516.258-.172-.257-.816-.687-.988-.43-.172-.774-.903-.645-1.332.13-.43.301-.774.774-.387.472.344.988-.129 1.332.645.344.773.688 1.074 1.547 1.203.387.043.645 0 .86 0 .257-.043.43-.086.644 0 .344.172.645.86.774.387s.043-.688-.13-.903c-.171-.258-.558-.344-.3-.86.258-.472.215-.859-.387-1.46-.601-.645-1.246-1.376-1.805-1.118-.558.258-.473.73-1.289.774-.774.043-1.89.386-2.106-.473 0 0 0-1.332.73-1.29.731.044.903.387 1.29-.171.387-.559 1.461-1.805 2.836-1.29 1.376.56 2.536 2.106 2.536 3.18.043 1.075.215 1.763.258 2.235.043.473.344.989-.344 2.235-.645 1.246-.387 1.461-.387 2.235 0 .773-.172 1.89-.387 3.094-.214 1.203-.086.688.688.946.774.257 1.074-.043 1.633-.086.387 0 .774-.087.989-.13.214.043.558.087.988.13.559.043.86.343 1.633.086.774-.258.902.257.688-.946-.215-1.203-.387-2.32-.387-3.094s.258-.989-.387-2.235-.387-1.805-.344-2.235c.043-.472.258-1.16.258-2.234.043-1.075 1.16-2.622 2.536-3.18 1.375-.56 2.45.687 2.836 1.289.387.558.559.172 1.29.172.73-.043.73 1.289.73 1.289-.215.902-1.29.516-2.106.473-.774-.043-.73-.516-1.29-.774-.558-.258-1.16.473-1.804 1.117-.645.645-.688.989-.387 1.462.258.472-.129.601-.3.86-.173.257-.259.472-.13.902.13.472.43-.215.774-.387.172-.086.387-.043.644 0 .215.043.516.086.86 0 .86-.13 1.203-.43 1.547-1.203.344-.774.86-.258 1.332-.645.473-.344.688-.043.774.387.129.43-.215 1.16-.645 1.332-.43.172-.945.773-.687.988.257.172-.13.473-.559.516-.43.043-.258.516-.258.516-.215.043-.258 0-.816-.258-.56-.258-.43.258-1.247.473-.816.257-.644.386-.773 1.203-.13.86.472 1.29 1.633 3.008.172.258.3.473.387.73.086-.257.129-.6.171-1.288.086-1.16.13-.56.731-1.505.602-.945.86-.472 1.59-.86.73-.386.387-.3.903-1.202.515-.903.988-.258 1.203-1.376.215-1.117.172-.73.516-1.289.343-.559.343-.344.215-1.203-.13-.86.085-2.235.085-2.235.043-.773.645-.559.817.129.172.688.043.473.473 1.074.386.645.129.56-.043 1.72-.13 1.16-.172.988.644 1.804.774.817.301 1.333.602 1.891.559.559.086.86-.3 1.118M8.036 4.158c.859-1.376 1.117-1.935 1.847-1.161.73.773.774 1.203 1.848 2.88 1.075 1.675 1.977 1.89 1.891 2.75-.129.902.043 1.289-1.074 1.761-1.118.43-1.72.172-1.762-.773-.043-.946.473-.645.258-1.59-.258-.946-.387-2.063-.774-2.32-.387-.259-1.16-.259-1.246.6 0 0-.301 1.376-.086 2.236.215.86-.086 2.277-.43 1.847-.387-.43-.902-.515-.816-2.45 0-1.933-.516-2.406.343-3.78M32.06 5.875c1.074-1.676 1.117-2.106 1.847-2.88.731-.773.989-.214 1.848 1.161.86 1.375.344 1.891.387 3.782.086 1.934-.43 1.977-.816 2.45-.387.43-.645-.989-.43-1.848.215-.86-.086-2.235-.086-2.235-.086-.86-.86-.86-1.246-.602-.387.258-.516 1.375-.774 2.32-.258.946.3.645.258 1.59-.043.946-.645 1.204-1.762.774-1.117-.43-.946-.859-1.074-1.762-.172-.902.773-1.117 1.848-2.75m10.056 19.339c-.688-1.031-.903-1.16-.946-2.063-.043-.945.086-1.461-.773-2.45-.86-.988-1.075-1.46-.946-2.75.13-1.29-.043-3.137-.515-3.739 0 0-.172 1.16-.387 1.418-.215.301-.258-1.59-.387-2.062-.172-.473-.387-1.118-.86-1.376-.472-.3-.644-1.074-.644-1.074S38.506 2.395 34.036.461c0 0-1.074-.387-1.934 1.547-.859 1.934-3.652 3.138-4.383 4.126-.73.988-1.117 1.117-1.203 1.117-.13 0-3.052-.73-4.642-.73-1.59 0-4.512.73-4.64.73-.13 0-.474-.129-1.204-1.117s-3.524-2.192-4.384-4.126C10.786.074 9.712.461 9.712.461 5.286 2.395 7.091 11.12 7.091 11.12s-.172.774-.645 1.074c-.472.301-.687.903-.86 1.376-.171.472-.214 2.363-.386 2.062-.215-.3-.387-1.418-.387-1.418-.473.602-.644 2.45-.515 3.74.128 1.288-.086 1.804-.946 2.75-.86.988-.73 1.504-.773 2.45-.043.945-.258 1.073-.946 2.062C.945 26.246 0 28.137 0 28.137s.387.172.73.301c.344.129.602.387.946.516s.387.344.688.515c.3.215 0 .387-.172.774s.258.602.773.86c.516.257.602.472.86 1.03.258.516.3 1.118.86 1.29.558.215.386.559.472 1.118.086.515.387.687 1.074.816.645.129.344.387.387.989.043.6.645.73 1.547.687.903-.043.387.3 1.762 1.59s3.481 3.008 5.544 5.63c2.02 2.621 5.071 7.735 6.446 7.735 1.376 0 4.384-5.114 6.447-7.735 2.02-2.622 4.168-4.298 5.543-5.63 1.376-1.29.86-1.633 1.762-1.59.903.043 1.505-.086 1.548-.687.043-.602-.301-.86.386-.989.645-.13.989-.3 1.075-.816.086-.516-.086-.903.472-1.118.56-.215.602-.774.86-1.29.258-.515.344-.773.86-1.03.515-.258.945-.473.773-.86-.172-.387-.43-.559-.172-.774.3-.214.387-.43.688-.515.343-.13.601-.43.945-.516.344-.129.73-.301.73-.301s-1.03-1.934-1.718-2.922m-13.194 5.114c-.085.386-.258.688-.258.988 0 .688-.43.731-1.117.387-.688-.344-.258.559-.387 1.418-.128.86-1.203 1.676-1.504 2.235-.343.559-.86.043-.902-.559-.044-.601.472-1.762-.215-2.965-.559-1.031-2.149-.645-2.622-.516-.472-.129-2.063-.472-2.621.516-.688 1.203-.172 2.364-.215 2.965-.043.602-.601 1.118-.902.56-.344-.56-1.376-1.376-1.504-2.236-.13-.86.3-1.719-.387-1.418-.688.344-1.118.258-1.118-.387 0-.3-.171-.602-.258-.988-.257-.043-.472-.043-.558.043-.172.215-.387 1.074-.172 2.062.258.99.559 1.161 1.203 1.978.645.816 1.16.558 1.59 1.719.43 1.203.258 1.46 1.032 1.762.773.3.86.386 1.632.3.774-.086.774.043 1.333.13.258.042.43 0 .516 0 .129-.044.215-.044.3 0 .044 0 .087.042.13.085.043-.043.085-.086.128-.086.086-.043.172-.043.3 0 .13 0 .26.043.517 0 .558-.043.558-.172 1.332-.129.774.086.86 0 1.633-.3.774-.302.601-.56 1.031-1.762.43-1.204.99-.903 1.59-1.72.645-.816.946-.988 1.204-1.977.258-.988 0-1.847-.172-2.062-.086-.129-.3-.086-.559-.043"></path></svg></g><line x1="36.539" y1="1" x2="36.539" y2="28" stroke="#d8d3d3" stroke-linecap="round"></line><path fill="#d8d3d3" fill-rule="nonzero" d="M20.54 15.31Q20.66 15.72 20.66 16.37L20.66 16.37Q19.56 16.30 17.78 16.30L17.78 16.30Q16.08 16.30 14.86 16.37L14.86 16.37Q14.86 15.79 15 15.34L15 15.34Q15.91 15.24 16.22 14.93Q16.54 14.62 16.54 13.78L16.54 13.78Q16.54 13.30 16.46 12.58L16.46 12.58L15.60 4.34L10.63 16.34Q10.22 16.51 9.65 16.51L9.65 16.51L4.06 4.37L3.29 12.07Q3.22 12.79 3.22 13.32L3.22 13.32Q3.22 14.42 3.59 14.84Q3.96 15.26 4.85 15.34L4.85 15.34Q4.97 15.74 4.97 16.37L4.97 16.37Q3.82 16.30 2.40 16.30L2.40 16.30Q0.98 16.30 0 16.37L0 16.37Q0 15.74 0.12 15.34L0.12 15.34Q0.79 15.26 1.15 15Q1.51 14.74 1.72 14.03Q1.92 13.32 2.06 11.86L2.06 11.86L2.83 3.31Q2.86 3.10 2.86 2.74L2.86 2.74Q2.86 1.80 2.47 1.42Q2.09 1.03 1.22 1.03L1.22 1.03Q1.10 0.65 1.10 0L1.10 0Q1.82 0.07 2.93 0.07L2.93 0.07Q3.82 0.07 4.75 0L4.75 0L10.75 13.27L15.98 0Q16.80 0.07 17.86 0.07L17.86 0.07Q18.72 0.07 19.68 0L19.68 0Q19.68 0.58 19.56 1.03L19.56 1.03Q18.74 1.03 18.32 1.44Q17.90 1.85 17.90 2.86L17.90 2.86Q17.90 3.24 17.93 3.46L17.93 3.46L18.79 12.26Q18.91 13.46 19.10 14.10Q19.30 14.74 19.63 15Q19.97 15.26 20.54 15.31L20.54 15.31ZM35.57 15.26Q35.69 15.62 35.69 16.34L35.69 16.34Q34.73 16.30 33.22 16.30L33.22 16.30Q31.63 16.30 30.67 16.34L30.67 16.34Q30.67 15.60 30.82 15.26L30.82 15.26Q31.37 15.19 31.60 15.06Q31.82 14.93 31.82 14.66L31.82 14.66Q31.82 14.45 31.58 13.92L31.58 13.92L31.10 12.89Q27.65 12.89 25.66 13.01L25.66 13.01L25.39 13.63Q25.15 14.18 25.15 14.50L25.15 14.50Q25.15 15.17 26.14 15.26L26.14 15.26Q26.28 15.70 26.28 16.34L26.28 16.34Q25.37 16.30 24.29 16.30L24.29 16.30Q23.35 16.30 22.58 16.34L22.58 16.34Q22.58 15.77 22.73 15.26L22.73 15.26Q23.26 15.17 23.54 14.82Q23.83 14.47 24.31 13.42L24.31 13.42L28.44 4.27Q28.90 4.18 29.40 4.18L29.40 4.18L33.82 13.34Q34.34 14.45 34.72 14.83Q35.09 15.22 35.57 15.26L35.57 15.26ZM26.14 11.90L30.62 11.90L29.18 8.88Q28.56 7.61 28.32 6.86L28.32 6.86Q28.13 7.46 27.85 8.05Q27.58 8.64 27.50 8.78L27.50 8.78L26.14 11.90ZM43.58 16.46Q42.26 16.46 41.20 16.20Q40.13 15.94 38.88 15.41L38.88 15.41Q39.14 13.80 39.07 12.62L39.07 12.62Q39.60 12.46 40.37 12.46L40.37 12.46Q40.42 13.94 41.32 14.62Q42.22 15.29 43.85 15.29L43.85 15.29Q45.24 15.29 46.04 14.86Q46.85 14.42 46.85 13.70L46.85 13.70Q46.85 13.20 46.45 12.83Q46.06 12.46 45.49 12.20Q44.93 11.95 43.85 11.57L43.85 11.57Q42.36 11.06 41.46 10.62Q40.56 10.18 39.90 9.40Q39.24 8.62 39.24 7.44L39.24 7.44Q39.24 5.83 40.45 4.99Q41.66 4.15 43.78 4.15L43.78 4.15Q44.90 4.15 46.02 4.37Q47.14 4.58 47.76 4.92L47.76 4.92Q47.74 5.18 47.74 5.74L47.74 5.74Q47.74 6.82 47.88 7.44L47.88 7.44Q47.38 7.70 46.56 7.70L46.56 7.70Q46.22 6.34 45.47 5.80Q44.71 5.26 43.61 5.26L43.61 5.26Q42.55 5.26 41.89 5.62Q41.23 5.98 41.23 6.67L41.23 6.67Q41.23 7.46 42 7.94Q42.77 8.42 44.40 9L44.40 9Q45.79 9.48 46.68 9.91Q47.57 10.34 48.19 11.08Q48.82 11.81 48.82 12.91L48.82 12.91Q48.82 14.50 47.52 15.48Q46.22 16.46 43.58 16.46L43.58 16.46ZM57.38 16.46Q56.06 16.46 55.00 16.20Q53.93 15.94 52.68 15.41L52.68 15.41Q52.94 13.80 52.87 12.62L52.87 12.62Q53.40 12.46 54.17 12.46L54.17 12.46Q54.22 13.94 55.12 14.62Q56.02 15.29 57.65 15.29L57.65 15.29Q59.04 15.29 59.84 14.86Q60.65 14.42 60.65 13.70L60.65 13.70Q60.65 13.20 60.25 12.83Q59.86 12.46 59.29 12.20Q58.73 11.95 57.65 11.57L57.65 11.57Q56.16 11.06 55.26 10.62Q54.36 10.18 53.70 9.40Q53.04 8.62 53.04 7.44L53.04 7.44Q53.04 5.83 54.25 4.99Q55.46 4.15 57.58 4.15L57.58 4.15Q58.70 4.15 59.82 4.37Q60.94 4.58 61.56 4.92L61.56 4.92Q61.54 5.18 61.54 5.74L61.54 5.74Q61.54 6.82 61.68 7.44L61.68 7.44Q61.18 7.70 60.36 7.70L60.36 7.70Q60.02 6.34 59.27 5.80Q58.51 5.26 57.41 5.26L57.41 5.26Q56.35 5.26 55.69 5.62Q55.03 5.98 55.03 6.67L55.03 6.67Q55.03 7.46 55.80 7.94Q56.57 8.42 58.20 9L58.20 9Q59.59 9.48 60.48 9.91Q61.37 10.34 61.99 11.08Q62.62 11.81 62.62 12.91L62.62 12.91Q62.62 14.50 61.32 15.48Q60.02 16.46 57.38 16.46L57.38 16.46ZM75.46 4.30Q76.27 4.30 77.28 4.25L77.28 4.25Q77.28 4.92 77.18 5.30L77.18 5.30Q76.58 5.40 76.08 5.77Q75.58 6.14 75.14 6.98L75.14 6.98L72.29 12.58L72.29 13.08Q72.29 14.04 72.40 14.45Q72.50 14.86 72.84 15.02Q73.18 15.19 73.94 15.26L73.94 15.26Q74.09 15.79 74.09 16.34L74.09 16.34Q72.17 16.30 71.23 16.30L71.23 16.30Q69.53 16.30 68.18 16.34L68.18 16.34Q68.18 15.72 68.33 15.26L68.33 15.26Q69.17 15.19 69.50 15.05Q69.84 14.90 69.96 14.51Q70.08 14.11 70.08 13.18L70.08 13.18L70.08 12.60L66.65 6.36Q66.29 5.78 65.96 5.57Q65.64 5.35 65.09 5.33L65.09 5.33Q64.97 4.90 64.97 4.25L64.97 4.25Q66.22 4.30 67.30 4.30L67.30 4.30Q69.53 4.30 70.20 4.25L70.20 4.25Q70.20 4.85 70.10 5.30L70.10 5.30Q69.58 5.35 69.34 5.50Q69.10 5.64 69.10 5.90L69.10 5.90Q69.10 6.22 69.43 6.77L69.43 6.77Q70.39 8.38 71.88 11.42L71.88 11.42Q72.86 9.26 74.16 6.84L74.16 6.84Q74.52 6.19 74.52 5.88L74.52 5.88Q74.52 5.62 74.29 5.50Q74.06 5.38 73.54 5.33L73.54 5.33Q73.37 4.73 73.37 4.25L73.37 4.25Q73.92 4.30 75.46 4.30L75.46 4.30ZM90.84 4.25Q90.77 5.54 91.01 7.37L91.01 7.37Q90.50 7.58 89.83 7.58L89.83 7.58Q89.78 6.43 89.22 5.88Q88.66 5.33 87.46 5.33L87.46 5.33L86.40 5.33L86.40 13.56Q86.40 14.30 86.53 14.65Q86.66 15 87.01 15.14Q87.36 15.29 88.08 15.34L88.08 15.34Q88.20 15.62 88.20 16.34L88.20 16.34Q86.42 16.30 85.30 16.30L85.30 16.30Q83.90 16.30 82.32 16.34L82.32 16.34Q82.32 15.62 82.44 15.34L82.44 15.34Q83.16 15.29 83.53 15.14Q83.90 15 84.05 14.64Q84.19 14.28 84.19 13.56L84.19 13.56L84.19 5.33L83.21 5.33Q82.25 5.33 81.73 5.58Q81.22 5.83 80.98 6.29Q80.74 6.74 80.57 7.58L80.57 7.58Q79.80 7.58 79.44 7.37L79.44 7.37Q79.80 5.74 79.80 4.25L79.80 4.25Q81.05 4.30 85.30 4.30L85.30 4.30Q89.62 4.30 90.84 4.25L90.84 4.25ZM105.46 15.26Q105.58 15.62 105.58 16.34L105.58 16.34Q104.62 16.30 103.10 16.30L103.10 16.30Q101.52 16.30 100.56 16.34L100.56 16.34Q100.56 15.60 100.70 15.26L100.70 15.26Q101.26 15.19 101.48 15.06Q101.71 14.93 101.71 14.66L101.71 14.66Q101.71 14.45 101.47 13.92L101.47 13.92L100.99 12.89Q97.54 12.89 95.54 13.01L95.54 13.01L95.28 13.63Q95.04 14.18 95.04 14.50L95.04 14.50Q95.04 15.17 96.02 15.26L96.02 15.26Q96.17 15.70 96.17 16.34L96.17 16.34Q95.26 16.30 94.18 16.30L94.18 16.30Q93.24 16.30 92.47 16.34L92.47 16.34Q92.47 15.77 92.62 15.26L92.62 15.26Q93.14 15.17 93.43 14.82Q93.72 14.47 94.20 13.42L94.20 13.42L98.33 4.27Q98.78 4.18 99.29 4.18L99.29 4.18L103.70 13.34Q104.23 14.45 104.60 14.83Q104.98 15.22 105.46 15.26L105.46 15.26ZM96.02 11.90L100.51 11.90L99.07 8.88Q98.45 7.61 98.21 6.86L98.21 6.86Q98.02 7.46 97.74 8.05Q97.46 8.64 97.39 8.78L97.39 8.78L96.02 11.90ZM117.91 13.34Q118.61 14.11 119.50 14.66Q120.38 15.22 121.20 15.26L121.20 15.26Q121.20 15.94 121.08 16.30L121.08 16.30Q119.02 16.30 117.77 16.44L117.77 16.44Q116.88 15.31 115.30 13.63Q113.71 11.95 112.25 10.58L112.25 10.58L112.25 13.49Q112.25 14.52 112.55 14.87Q112.85 15.22 113.71 15.26L113.71 15.26Q113.81 15.62 113.81 16.34L113.81 16.34Q112.18 16.30 111.17 16.30L111.17 16.30Q109.97 16.30 108.48 16.34L108.48 16.34Q108.48 15.60 108.60 15.26L108.60 15.26Q109.20 15.22 109.50 15.07Q109.80 14.93 109.92 14.57Q110.04 14.21 110.04 13.49L110.04 13.49L110.04 7.08Q110.04 6.38 109.92 6.02Q109.80 5.66 109.50 5.52Q109.20 5.38 108.60 5.33L108.60 5.33Q108.48 4.97 108.48 4.25L108.48 4.25Q110.02 4.30 111.17 4.30L111.17 4.30Q112.13 4.30 113.81 4.25L113.81 4.25Q113.81 4.99 113.71 5.33L113.71 5.33Q112.85 5.38 112.55 5.71Q112.25 6.05 112.25 7.08L112.25 7.08L112.25 10.01L115.99 6.96Q117.00 6.14 117.00 5.74L117.00 5.74Q117.00 5.38 116.28 5.33L116.28 5.33Q116.16 4.94 116.16 4.25L116.16 4.25Q117.12 4.30 118.37 4.30L118.37 4.30Q119.50 4.30 120.65 4.25L120.65 4.25Q120.65 4.92 120.50 5.33L120.50 5.33Q119.78 5.35 119.15 5.66Q118.51 5.98 117.48 6.74L117.48 6.74L114.24 9.50Q115.80 10.99 117.91 13.34L117.91 13.34Z" transform="translate(46.539, 6.244)"></path></svg>